<?xml version="1.0" standalone="no"?>
<!DOCTYPE svg PUBLIC "-//W3C//DTD SVG 1.1//EN" "http://www.w3.org/Graphics/SVG/1.1/DTD/svg11.dtd" >
<svg xmlns="http://www.w3.org/2000/svg" xmlns:xlink="http://www.w3.org/1999/xlink" version="1.1">
<metadata></metadata>
<defs>
<font id="primetimeregular" horiz-adv-x="402" >
<font-face units-per-em="1000" ascent="975" descent="-25" />
<missing-glyph horiz-adv-x="320" />
<glyph />
<glyph />
<glyph />
<glyph unicode="&#x9;" />
<glyph unicode="&#xa;" />
<glyph unicode=" "  horiz-adv-x="320" />
<glyph unicode="&#x09;" horiz-adv-x="320" />
<glyph unicode="&#xa0;" horiz-adv-x="320" />
<glyph unicode="!" horiz-adv-x="342" d="M266 198h-169l-10 600h188zM181 -24q-20 0 -37 7t-30 20t-20.5 29.5t-7.5 36.5t7.5 37.5t20.5 30t30 20t37 7.5q19 0 36.5 -7.5t30.5 -20t20.5 -30t7.5 -37.5t-7.5 -36.5t-20.5 -29.5t-30.5 -20t-36.5 -7z" />
<glyph unicode="&#x22;" horiz-adv-x="514" d="M421 525h-106l-9 294l126 -1zM221 525h-106l-9 294l126 -1z" />
<glyph unicode="#" horiz-adv-x="949" d="M921 473l-879 5l29 175l879 -5zM682 -27l-186 1l136 822l186 -1zM302 -25l-186 1l136 822l186 -1zM863 117l-879 5l28 175l879 -5z" />
<glyph unicode="$" horiz-adv-x="763" d="M444 -24v-117h-104v120q-65 8 -126.5 26t-123.5 38l81 192q42 -14 83.5 -28t85.5 -23v159q-25 6 -50.5 12t-50 15t-47 22t-40.5 33q-51 56 -51 131q0 60 29.5 114.5t77.5 89.5q29 21 63 33t69 17v120h104v-122q58 -8 112 -29.5t107 -45.5q-24 -38 -47 -76t-49 -75 q-32 11 -61.5 24.5t-61.5 21.5v-129q49 -11 97 -30t85.5 -49t61 -72.5t23.5 -99.5q0 -40 -13.5 -82t-34.5 -76q-18 -28 -42.5 -48t-53 -33.5t-60 -21.5t-63.5 -11zM340 627q-37 -16 -37 -56q0 -18 10.5 -29.5t26.5 -18.5v104zM444 316v-134q22 7 40.5 24t18.5 43 q0 25 -19 42t-40 25z" />
<glyph unicode="%" horiz-adv-x="1037" d="M767 -23q-44 0 -80.5 18t-62.5 48t-41 68.5t-15 80.5q0 43 15 82.5t42.5 69.5t65 48t82.5 18q43 0 80 -18t64 -48t42 -69t15 -81q0 -44 -15.5 -83t-43.5 -69t-65.5 -47.5t-82.5 -17.5zM306 -24h-197l603 801h193zM255 363q-43 0 -79.5 18.5t-62.5 48.5t-41 69t-15 81 q0 43 15 82.5t42 69.5t64.5 48t82.5 18q43 0 80 -18.5t64 -48.5t42 -69t15 -80q0 -44 -15.5 -83.5t-43 -69.5t-65.5 -48t-83 -18zM772 264q-28 0 -44.5 -21t-16.5 -47t16.5 -47.5t44.5 -21.5q27 0 44 21.5t17 47.5t-17 47t-44 21zM260 652q-27 0 -44 -21.5t-17 -47.5t17 -47 t44 -21q28 0 44.5 21t16.5 47t-16.5 47.5t-44.5 21.5z" />
<glyph unicode="&#x26;" horiz-adv-x="830" d="M670 200q-20 -49 -51 -90t-70.5 -71t-88.5 -46.5t-105 -16.5q-54 0 -107 20t-95 55t-68.5 83.5t-26.5 104.5q0 21 4.5 45t13 47t21 44.5t27.5 37.5q-7 6 -12.5 12t-10.5 11q-14 14 -23 29q-11 15 -16.5 33t-5.5 41q0 60 29.5 108t75.5 81.5t102.5 51t110.5 17.5 t106 -16.5t103 -48.5l-104 -131q-50 31 -102 31q-19 0 -41 -6t-41 -16.5t-31.5 -26t-12.5 -34.5q0 -14 11 -24.5t30 -18.5q9 -4 18.5 -7t18.5 -6q10 -4 19 -7t19 -8l6 -136q0 -4 -4.5 -8.5t-9.5 -7.5q-4 -2 -7.5 -4t-4.5 -3q-9 -5 -17 -9l-16 -8q-7 -5 -13.5 -8.5 t-11.5 -8.5q-11 -10 -18.5 -23t-12.5 -33q-2 -8 -2 -12q0 -15 10 -27t25 -20.5t32.5 -12.5t33.5 -4q29 0 55.5 13t46.5 34h-40v145h266q34 0 66 20.5t49 58.5l97 -101q-18 -40 -41.5 -64t-52.5 -37t-62.5 -17.5t-70.5 -4.5z" />
<glyph unicode="'" horiz-adv-x="324" d="M231 543l-121 1l-9 280l141 -1z" />
<glyph unicode="(" horiz-adv-x="448" d="M298 -176q-32 26 -61 55t-54 61q-72 94 -109 205t-37 229q0 167 68.5 314.5t191.5 257.5l116 -151q-90 -81 -141 -189.5t-51 -230.5q0 -86 26.5 -165t79.5 -148q18 -24 41 -45.5t46 -41.5z" />
<glyph unicode=")" horiz-adv-x="501" d="M171 -176l-116 151q23 20 45.5 41.5t41.5 45.5q52 69 79 148t27 165q0 122 -51 230.5t-142 189.5l117 151q61 -55 109 -120t81.5 -138t51.5 -152t18 -162q0 -118 -37 -229t-109 -205q-25 -32 -54.5 -61t-60.5 -55z" />
<glyph unicode="*" />
<glyph unicode="+" horiz-adv-x="563" d="M364 283v-129h-151v129h-134v144h134v129h151v-129h135v-144h-135z" />
<glyph unicode="," horiz-adv-x="368" d="M234 -154l-104 25l20 248l138 -33z" />
<glyph unicode="-" horiz-adv-x="809" d="M307 246v132h351v-132h-351z" />
<glyph unicode="." horiz-adv-x="502" d="M325 -24q-19 0 -36.5 7t-30.5 19.5t-20.5 29t-7.5 36.5q0 19 7.5 36t20.5 30t30.5 20t36.5 7t36.5 -7t30.5 -20t20.5 -30t7.5 -36q0 -39 -28 -65.5t-67 -26.5z" />
<glyph unicode="/" horiz-adv-x="773" d="M229 -24h-246l614 800h243z" />
<glyph unicode="0" horiz-adv-x="938" d="M461 -24q-82 0 -150 34.5t-117.5 91.5t-77 130.5t-27.5 150.5q0 81 28 156t78.5 132.5t121 91.5t155.5 34q82 0 151 -34.5t119 -92t78.5 -131t28.5 -151.5q0 -82 -29 -156.5t-80.5 -131.5t-123 -90.5t-155.5 -33.5zM471 591q-41 0 -74.5 -17t-57.5 -44.5t-37.5 -63.5 t-13.5 -74q0 -39 13.5 -74.5t37.5 -63.5t57.5 -44.5t74.5 -16.5q40 0 73.5 16.5t57.5 44.5t37.5 64t13.5 74t-13.5 74t-37.5 63.5t-57.5 44.5t-73.5 17z" />
<glyph unicode="1" horiz-adv-x="938" d="M372 0l-1 775h196v-775h-195z" />
<glyph unicode="2" horiz-adv-x="938" d="M746 1h-543v40l328 418q9 11 13.5 24t4.5 27q0 35 -23.5 59t-58.5 24t-58.5 -24.5t-23.5 -59.5q0 -10 1 -14l-190 -34q-5 23 -5 45q0 58 21.5 109.5t59 90t88 60.5t109.5 22q57 0 107 -22t87 -60t58 -88t21 -107q0 -97 -60 -174q-27 -36 -55 -71.5t-57 -71.5v-13h177z " />
<glyph unicode="3" horiz-adv-x="938" d="M467 -24q-25 -1 -50 1t-49 9q-85 24 -128 85.5t-57 144.5h179q9 -29 35 -43.5t55 -14.5q18 0 36 5.5t32.5 16t23.5 26t9 35.5q0 16 -6.5 30.5t-19.5 24.5q-8 8 -21 12t-24 4h-91v159h91q29 0 50.5 21t21.5 50q0 19 -8 34t-21.5 25.5t-30.5 16t-34 5.5q-26 0 -48 -12 t-36 -34h-184q5 22 12 43t18 40q37 65 102 102.5t140 37.5q57 0 109.5 -22.5t92 -61t63.5 -90t24 -109.5q0 -64 -32 -120q17 -29 25.5 -62.5t8.5 -65.5q0 -50 -17.5 -102t-49 -94t-76.5 -69.5t-100 -27.5h-45z" />
<glyph unicode="4" horiz-adv-x="938" d="M563 0v140h-383v136l332 500h251v-776h-200zM570 555l-164 -248h164v248z" />
<glyph unicode="5" horiz-adv-x="938" d="M504 2h-310v193h295q23 0 38.5 16.5t15.5 38.5q0 23 -15.5 39.5t-38.5 16.5h-289v468h481v-191h-294v-84h117q51 0 95 -20t76.5 -54t51 -79.5t18.5 -95.5t-18.5 -95t-51 -79t-76.5 -54t-95 -20z" />
<glyph unicode="6" horiz-adv-x="938" d="M163 267q0 30 6.5 57.5t19.5 54.5q17 35 34 69l34 68l129 260h208l-106 -214q60 -1 112 -23.5t91 -61.5t61.5 -91t22.5 -112q0 -63 -24.5 -117.5t-66 -94.5t-97 -62.5t-117.5 -22.5q-59 0 -114.5 22.5t-98.5 61.5t-68.5 92t-25.5 114zM471 382q-23 0 -40.5 -10t-30.5 -26 t-19.5 -36t-6.5 -41t6.5 -41t19.5 -36t30.5 -26t40.5 -10q22 0 40 10t30.5 26t19.5 36t7 41t-7 41t-19.5 36t-30.5 26t-40 10z" />
<glyph unicode="7" horiz-adv-x="938" d="M528 0h-214l167 579h-280l35 196h501z" />
<glyph unicode="8" horiz-adv-x="938" d="M177 272q0 50 16 96.5t46 85.5q-11 23 -15 47.5t-4 49.5q0 51 18.5 96.5t51 79t77 53.5t96.5 20q51 0 95 -20t77 -53.5t51.5 -78.5t18.5 -95q0 -46 -15 -86q35 -40 53 -90.5t18 -103.5q0 -62 -22.5 -116t-62 -94t-93 -63.5t-115.5 -23.5q-61 0 -114 23.5t-92.5 64 t-62 94.5t-22.5 114zM405 568q0 -29 17.5 -49t46.5 -20q30 0 47.5 20t17.5 49t-17.5 48.5t-47.5 19.5q-29 0 -46.5 -19.5t-17.5 -48.5zM469 383q-21 0 -38 -10t-29 -26t-18 -36t-6 -39q0 -20 6 -39.5t18 -35.5t29 -26t38 -10q22 0 39 10t29 26t18 35.5t6 39.5q0 19 -6 39 t-18 36t-29 26t-39 10z" />
<glyph unicode="9" horiz-adv-x="938" d="M570 0h-223l114 237q-58 1 -110.5 23t-92.5 59.5t-64 88.5t-24 110q0 61 24.5 112.5t66 89t95.5 58.5t113 21q58 0 112.5 -21t95.5 -58.5t66 -89t25 -111.5q0 -28 -5.5 -53t-15.5 -51q-14 -35 -29 -69t-30 -69zM469 626q-22 0 -40 -9.5t-30.5 -24.5t-19.5 -34.5t-7 -39.5 q0 -21 7 -40.5t19.5 -34.5t30.5 -24.5t40 -9.5t39.5 9.5t30.5 24.5t20 34.5t7 40.5q0 20 -7 39.5t-20 34.5t-30.5 24.5t-39.5 9.5z" />
<glyph unicode=":" horiz-adv-x="477" d="M322 403q-20 0 -37 7.5t-30.5 20t-21 29.5t-7.5 37q0 19 7.5 36.5t21 30t30.5 20t37 7.5q19 0 36.5 -7.5t30.5 -20t20.5 -30t7.5 -36.5q0 -20 -7.5 -37t-20.5 -29.5t-30.5 -20t-36.5 -7.5zM322 -24q-20 0 -37 7t-30.5 20t-21 29.5t-7.5 36.5t7.5 37t21 30t30.5 20t37 7 q19 0 36.5 -7t30.5 -20t20.5 -30t7.5 -37t-7.5 -36.5t-20.5 -29.5t-30.5 -20t-36.5 -7z" />
<glyph unicode=";" horiz-adv-x="472" d="M321 403q-20 0 -37 7.5t-30 20t-20.5 29.5t-7.5 37q0 19 7.5 36.5t20.5 30t30 20t37 7.5q19 0 36.5 -7.5t30.5 -20t20.5 -30t7.5 -36.5q0 -20 -7.5 -37t-20.5 -29.5t-30.5 -20t-36.5 -7.5zM336 -156l-104 27l20 250l138 -34z" />
<glyph unicode="&#x3c;" horiz-adv-x="768" d="M641 37l-641 357l641 357l95 -144l-383 -213l383 -213z" />
<glyph unicode="=" horiz-adv-x="553" d="M86 427v134h405v-134h-405zM86 156v134h405v-134h-405z" />
<glyph unicode="&#x3e;" horiz-adv-x="729" d="M87 37l-95 144l383 213l-383 213l95 144l642 -357z" />
<glyph unicode="?" horiz-adv-x="761" d="M501 290v-59h-183v96q0 45 28.5 80.5t70.5 47.5q8 2 16 4.5t16 4.5q35 10 57.5 38t22.5 65q0 23 -9 43t-24 35t-35.5 24t-43.5 9q-45 0 -76.5 -30t-34.5 -75h-183q1 60 25 112t64 91t92.5 61t112.5 22q61 0 114.5 -23.5t93.5 -63.5t63 -94t23 -115q0 -46 -16 -90 t-44.5 -80.5t-66.5 -63.5t-83 -39zM410 -24q-20 0 -37 7t-30 20t-20.5 29.5t-7.5 36.5t7.5 37.5t20.5 30t30 20t37 7.5q19 0 36.5 -7.5t30.5 -20t20.5 -30t7.5 -37.5t-7.5 -36.5t-20.5 -29.5t-30.5 -20t-36.5 -7z" />
<glyph unicode="@" horiz-adv-x="838" d="M680 171l5 2l63 -120l-4 -2zM454 187q-32 0 -63 5.5t-56 19.5t-40.5 38t-15.5 62q0 37 17 62t44 39.5t60 20t64 4.5v2q0 16 -7.5 30.5t-26.5 14.5q-17 0 -24.5 -16t-6.5 -30l-114 4q2 31 12.5 59t29.5 49t45 33.5t58 12.5q58 0 88.5 -25t43.5 -63.5t13.5 -85t0.5 -89.5 q19 7 31.5 21.5t19.5 32.5t9.5 37.5t2.5 37.5q0 43 -13.5 79t-39 62.5t-61 41t-78.5 14.5q-56 0 -104 -22.5t-82.5 -60t-54 -87t-19.5 -104.5q0 -64 24 -113t64.5 -82.5t95 -50.5t114.5 -17q52 0 102.5 12.5t95.5 37.5l66 -120q-63 -33 -131 -49.5t-138 -16.5 q-89 0 -167.5 27.5t-137.5 78.5t-93 125t-34 167q0 83 30 158t83.5 131.5t126 90t157.5 33.5q72 0 133.5 -25t105.5 -70t69 -106t25 -133q0 -83 -22.5 -136.5t-64.5 -85t-102 -43.5t-135 -12zM463 326q-8 1 -14.5 1.5t-14.5 0.5q-5 0 -12 -0.5t-14 -2t-11.5 -5.5t-4.5 -11 q0 -4 5.5 -6t12.5 -3t14 -1h10h14t15 1v26z" />
<glyph unicode="A" horiz-adv-x="837" d="M576 0l-40 107h-239l-40 -107h-219l287 776h183l287 -776h-219zM417 492l-62 -205h123z" />
<glyph unicode="B" horiz-adv-x="728" d="M490 0h-440v776h406q22 0 45.5 -5.5t46 -16t42 -24.5t33.5 -31q25 -30 38.5 -67t13.5 -76q0 -45 -18 -86.5t-52 -72.5q22 -14 40.5 -34t31.5 -44t20.5 -50.5t7.5 -51.5q0 -44 -16.5 -83.5t-46 -69t-68.5 -47t-84 -17.5zM393 620h-139v-158h139q32 0 55.5 23.5t23.5 55.5 t-23.5 55.5t-55.5 23.5zM400 321h-146v-157h146q33 0 56 23t23 56q0 32 -23 55t-56 23z" />
<glyph unicode="C" horiz-adv-x="723" d="M438 -24q-86 0 -160.5 32.5t-130 89t-87.5 131t-32 158.5t32 158.5t87.5 131t130 89t160.5 32.5q78 0 150 -28.5t133 -82.5l-160 -140q-58 41 -122 41q-42 0 -78 -16t-62 -44t-41 -64.5t-15 -76.5q0 -41 15 -77.5t41 -64t61.5 -44t77.5 -16.5q48 0 89.5 22t72.5 62 l165 -134q-62 -76 -146.5 -117.5t-180.5 -41.5z" />
<glyph unicode="D" horiz-adv-x="855" d="M397 0h-347v776h347q81 0 152 -30.5t124 -83t83.5 -123.5t30.5 -151t-30.5 -151t-83.5 -123.5t-124 -83t-152 -30.5zM373 587h-119v-398h119q42 0 78.5 15.5t63.5 42.5t42.5 63.5t15.5 77.5t-15.5 77.5t-42.5 63.5t-63.5 42.5t-78.5 15.5z" />
<glyph unicode="E" horiz-adv-x="708" d="M45 0v776h619v-185h-417v-111h393v-185h-393v-111h417v-184h-619z" />
<glyph unicode="F" horiz-adv-x="669" d="M239 585v-106h356v-189h-356v-290h-207v760l16 16h595v-191h-404z" />
<glyph unicode="G" horiz-adv-x="873" d="M643 0v22q-90 -46 -190 -46q-87 0 -161.5 32t-129.5 87.5t-86 130t-31 160.5q0 84 31.5 159t87 131.5t130 89t160.5 32.5q92 0 174.5 -39.5t143.5 -111.5l-170 -113q-31 31 -68.5 47.5t-79.5 16.5q-44 0 -81.5 -17.5t-65 -46.5t-43 -67.5t-15.5 -81.5t15.5 -82t43.5 -68 t65.5 -46.5t81.5 -17.5q47 0 89.5 21t71.5 59h-137v187h341v-438h-177z" />
<glyph unicode="H" horiz-adv-x="842" d="M548 0v293h-275v-293h-215v776h215v-296h275v296h217v-776h-217z" />
<glyph unicode="I" horiz-adv-x="336" d="M53 0v776h209v-776h-209z" />
<glyph unicode="J" horiz-adv-x="648" d="M588 418q0 -92 -35.5 -172.5t-96.5 -140.5t-142.5 -94.5t-173.5 -34.5q-23 0 -46.5 2.5t-50.5 7.5l40 199q15 -3 27 -4t23 -1q51 0 96.5 19.5t79.5 52.5t53.5 78t19.5 96v350h206v-358z" />
<glyph unicode="K" horiz-adv-x="751" d="M409 409l307 -409h-252l-213 261v-261h-213v776h213v-261l213 261h262z" />
<glyph unicode="L" horiz-adv-x="663" d="M26 0v776h215v-584h408v-192h-623z" />
<glyph unicode="M" horiz-adv-x="914" d="M636 0v399l-166 -274q-3 -6 -10 -8t-12 -2q-6 0 -13 2t-10 8l-166 274v-399h-203v776h190q10 0 17 -9l184 -307l185 307q7 9 16 9h191v-776h-203z" />
<glyph unicode="N" horiz-adv-x="804" d="M527 1l-269 414v-414h-207v775h206l270 -418v418h208v-775h-208z" />
<glyph unicode="O" horiz-adv-x="936" d="M464 -24q-86 0 -161 32t-131 87.5t-88.5 130.5t-32.5 160t32.5 160t88.5 130.5t131 88t161 32.5q85 0 160.5 -32.5t131.5 -88t88.5 -130.5t32.5 -160t-32.5 -160t-88.5 -130.5t-131.5 -87.5t-160.5 -32zM464 599q-44 0 -81.5 -17.5t-64.5 -46.5t-42.5 -67.5t-15.5 -81.5 q0 -42 15.5 -81t42.5 -68t64.5 -46.5t81.5 -17.5t81.5 17.5t64.5 46.5t42.5 68t15.5 81q0 43 -15.5 81.5t-42.5 67.5t-64.5 46.5t-81.5 17.5z" />
<glyph unicode="P" horiz-adv-x="702" d="M387 241h-141v-241h-208v776h349q56 0 107.5 -19t91 -53t63 -82t23.5 -105q0 -58 -23.5 -108t-63 -87.5t-91 -59t-107.5 -21.5zM372 604h-121v-168h121q18 0 34 6.5t28 18t19 26.5t7 33t-7 33t-19 26.5t-28 18t-34 6.5z" />
<glyph unicode="Q" horiz-adv-x="942" d="M690 0l-17 31q-46 -29 -99 -42t-107 -13q-63 0 -124 17.5t-113 52.5q-42 29 -75.5 67t-56.5 82.5t-35.5 93.5t-12.5 100q0 85 33 159.5t89 130t131.5 87.5t160.5 32t160.5 -32.5t131.5 -88.5t88.5 -131t32.5 -160q0 -62 -18 -120.5t-53 -109.5l82 -156h-198zM467 591 q-43 0 -81 -16.5t-66 -45t-44 -67t-16 -81.5q0 -44 16 -82.5t44 -67.5t66 -45.5t83 -16.5q30 0 59.5 8.5t54.5 26.5l-33 65h94q31 53 31 111q0 43 -16 81t-44 67t-66 46t-82 17z" />
<glyph unicode="R" horiz-adv-x="794" d="M523 0l-135 240h-131l1 -240h-214v776h389q28 0 57 -10.5t56 -28t50 -39.5t39 -45q20 -29 30.5 -67.5t10.5 -73.5q0 -58 -27 -108t-75 -84l182 -320h-233zM372 604h-121v-168h121q18 0 34 6.5t28 18t19 26.5t7 33t-7 33t-19 26.5t-28 18t-34 6.5z" />
<glyph unicode="S" horiz-adv-x="772" d="M354 -24q-78 0 -154.5 18.5t-146.5 51.5q-2 0 -10 4q-8 5 -8 7q0 1 4 8l10 17.5t14 24t16 27.5q17 28 32 53t21 36q13 -5 25 -12q54 -27 108.5 -41.5t115.5 -14.5q17 0 36.5 1.5t35.5 7.5t26.5 18.5t10.5 35.5q0 11 -6 19.5t-15 15t-19 11.5t-19 8q-21 8 -43 12t-44 9 q-29 7 -57 13t-54 14q-27 8 -51.5 17.5t-45.5 22.5q-43 26 -68.5 69.5t-25.5 115.5q0 25 5.5 50.5t16.5 48.5q22 46 57 76t77.5 47t89.5 24t94 7q77 0 152 -18.5t143 -60.5q-25 -42 -48.5 -82.5t-47.5 -82.5q-58 28 -112.5 46t-117.5 18q-15 0 -31.5 -1.5t-30.5 -7.5 t-23 -17.5t-9 -30.5q0 -14 6 -24q7 -11 25.5 -19.5t45.5 -15.5t59 -13.5t67 -15.5q34 -9 68.5 -20.5t65 -28t54.5 -39t38 -53.5q11 -23 15 -49.5t4 -52.5q0 -76 -31 -125t-81 -77.5t-113 -40t-126 -11.5z" />
<glyph unicode="T" horiz-adv-x="741" d="M688 584h-213v-584h-211v584h-213l-14 14v178h665v-178z" />
<glyph unicode="U" horiz-adv-x="768" d="M700 284q0 -53 -17.5 -100t-49 -85t-74.5 -65.5t-93 -42.5q-22 -7 -45 -11t-46 -4t-45.5 4t-44.5 11q-50 15 -93 42.5t-74.5 65.5t-49 85t-17.5 100v492h216v-479q0 -22 9 -40.5t24 -32t34.5 -21t40.5 -7.5q22 0 41.5 7.5t34.5 21t24 32t9 40.5v479h216v-492z" />
<glyph unicode="V" horiz-adv-x="821" d="M503 0h-187l-289 774h232l150 -401l150 401h232z" />
<glyph unicode="W" horiz-adv-x="1229" d="M902 0h-166l-124 335l-123 -335h-166l-286 774h224l145 -392l145 392h123l145 -392l145 392h224z" />
<glyph unicode="X" horiz-adv-x="846" d="M560 0l-134 201h-10l-134 -201h-245l261 394l-254 382h246l126 -190h10l126 190h246l-254 -382l262 -394h-246z" />
<glyph unicode="Y" horiz-adv-x="780" d="M499 267v-267h-221v267l-271 508h244l138 -270l137 270h244z" />
<glyph unicode="Z" horiz-adv-x="746" d="M68 0v35l302 542h-325v199h645v-35l-302 -542h309v-199h-629z" />
<glyph unicode="[" horiz-adv-x="400" d="M45 -172v1135h306v-173h-131v-789h129v-173h-304z" />
<glyph unicode="\" horiz-adv-x="773" d="M596 -24l-598 800h223l604 -800h-229z" />
<glyph unicode="]" horiz-adv-x="438" d="M59 -172v173h128v789h-130v173h305v-1135h-303z" />
<glyph unicode="^" horiz-adv-x="721" d="M363 951v0l141 -57l-4 -84l-138 54l-140 -54l-1 84l141 57h1z" />
<glyph unicode="_" horiz-adv-x="817" d="M55 0v133h687v-133h-687z" />
<glyph unicode="`" horiz-adv-x="528" d="M-19 839v82h584v-82h-584z" />
<glyph unicode="a" horiz-adv-x="712" d="M481 0l-33 89h-188l-33 -89h-194l241 659h160l241 -659h-194zM354 380l-42 -128h84z" />
<glyph unicode="b" horiz-adv-x="619" d="M412 0h-368v659h340q19 0 39 -5t39 -13.5t36 -20.5t29 -27q21 -26 32.5 -58t11.5 -65q0 -38 -13.5 -72t-39.5 -60q35 -24 52.5 -66t17.5 -84q0 -38 -13 -72.5t-36.5 -60t-55.5 -40.5t-71 -15zM332 514h-105v-115h105q24 0 40.5 17t16.5 41q0 23 -16.5 40t-40.5 17z M338 267h-111v-116h111q24 0 41 17t17 41t-17 41t-41 17z" />
<glyph unicode="c" horiz-adv-x="614" d="M371 -20q-72 0 -135 28t-109.5 75.5t-73 111t-26.5 134.5t26.5 134.5t73 111t109.5 75.5t135 28q66 0 127 -24.5t117 -75.5l-143 -126q-52 37 -100 37q-33 0 -61 -13t-48.5 -35t-32.5 -51t-12 -61t11.5 -61.5t32 -51.5t48.5 -35t61 -13q76 0 132 74l147 -122 q-56 -69 -127 -104.5t-152 -35.5z" />
<glyph unicode="d" horiz-adv-x="726" d="M342 0h-297v659h297q68 0 128 -26t105 -70.5t71 -104.5t26 -128t-26 -128t-71 -105t-105 -71t-128 -26zM323 488h-91v-316h91q33 0 61.5 12.5t50 34t34 50t12.5 61.5t-12.5 61.5t-34 50t-50 34t-61.5 12.5z" />
<glyph unicode="e" horiz-adv-x="602" d="M41 0v659h523v-165h-349v-81h330v-166h-330v-81h349v-166h-523z" />
<glyph unicode="f" horiz-adv-x="569" d="M214 487v-83h299v-174h-299v-230h-184v642l17 17h498v-172h-331z" />
<glyph unicode="g" horiz-adv-x="742" d="M533 0v14q-71 -34 -149 -34q-73 0 -136 27t-109 74t-72 110.5t-26 136.5q0 72 26.5 135.5t73 111.5t109.5 76t135 28q78 0 148.5 -34.5t125.5 -100.5l-153 -103q-54 56 -120 56q-35 0 -64.5 -14t-51 -37t-34 -54t-12.5 -65t12.5 -64.5t34 -54t51 -37t64.5 -13.5 q33 0 63.5 13.5t52.5 37.5h-104v170h297v-379h-162z" />
<glyph unicode="h" horiz-adv-x="716" d="M454 0v238h-209v-238h-197v659h197v-243h209v243h197v-659h-197z" />
<glyph unicode="i" horiz-adv-x="285" d="M38 0v659h193v-659h-193z" />
<glyph unicode="j" horiz-adv-x="551" d="M124 -20q-19 0 -39.5 2.5t-47.5 7.5l35 178q17 -3 27.5 -4t19.5 -1q40 0 76 15.5t63 42.5t42.5 63.5t15.5 77.5v297h180v-305q0 -78 -29 -146t-79.5 -118.5t-118.5 -80t-145 -29.5z" />
<glyph unicode="k" horiz-adv-x="639" d="M386 0l-163 202v-202h-189v659h189v-202l163 202h231l-266 -329l266 -330h-231z" />
<glyph unicode="l" horiz-adv-x="564" d="M25 0v659h185v-492h342v-167h-527z" />
<glyph unicode="m" horiz-adv-x="777" d="M527 0v308l-120 -198q-5 -8 -13 -10.5t-14 -2.5q-5 0 -13 2.5t-13 10.5l-120 198v-308h-186v659h166q13 0 22 -12l144 -240l145 240q7 12 21 12h166v-659h-185z" />
<glyph unicode="n" horiz-adv-x="683" d="M437 0l-203 319v-319h-186v659h182l203 -321v321h186v-659h-182z" />
<glyph unicode="o" horiz-adv-x="796" d="M395 -20q-72 0 -136 27.5t-111.5 74.5t-75 111t-27.5 136t27.5 135.5t75 111t111.5 75t136 27.5t136 -27.5t111.5 -74.5t75 -111t27.5 -136t-27.5 -136t-75 -111t-111.5 -74.5t-136 -27.5zM395 497q-34 0 -63.5 -13.5t-51 -36.5t-34 -53.5t-12.5 -64.5t12.5 -64.5t34 -54 t51 -37t63.5 -13.5t63.5 13.5t51 37t33.5 54t12 64.5t-12 64.5t-33.5 53.5t-51 36.5t-63.5 13.5z" />
<glyph unicode="p" horiz-adv-x="638" d="M314 197h-116v-197h-189v659h305q49 0 94.5 -17.5t80.5 -49t56 -74t21 -91.5q0 -50 -21 -92t-55.5 -72.5t-80.5 -48t-95 -17.5zM308 499h-107v-127h107q26 0 44 18.5t18 42.5q0 25 -18.5 45.5t-43.5 20.5z" />
<glyph unicode="q" horiz-adv-x="801" d="M577 0l-13 22q-38 -22 -80.5 -32t-86.5 -10q-53 0 -104.5 14.5t-96.5 44.5q-72 50 -112 126.5t-40 164.5q0 72 27.5 135.5t75.5 111t111.5 74.5t135.5 27q73 0 136.5 -27.5t111 -75t75 -111.5t27.5 -136q0 -51 -14.5 -99.5t-42.5 -91.5l72 -137h-182zM397 490 q-34 0 -64 -13t-52 -35.5t-34.5 -53t-12.5 -64.5q0 -35 12.5 -65.5t34.5 -53t52 -36t65 -13.5q23 0 44.5 6t39.5 18l-31 60h87q22 37 22 83q0 34 -12.5 64.5t-34.5 53t-52 36t-64 13.5z" />
<glyph unicode="r" horiz-adv-x="674" d="M455 0l-104 201h-117v-201h-193v659h344q23 0 47.5 -6.5t47.5 -18t42.5 -27.5t33.5 -36q17 -25 26 -54t9 -59q0 -48 -22 -90.5t-60 -71.5l154 -296h-208zM331 505h-97v-125h97q26 0 45 18.5t19 44.5t-19 44t-45 18z" />
<glyph unicode="s" horiz-adv-x="656" d="M301 -21q-65 0 -128.5 16t-121.5 44q-1 0 -3 1t-5 2q-5 3 -7.5 6.5t-2.5 5.5q0 1 11 21.5t26 46.5q14 23 26 44.5t20 34.5l16.5 -7.5t10.5 -5.5q44 -22 88 -34t92 -12h13.5t13.5 1q15 0 27 4q12 5 20.5 14t8.5 27q0 13 -10 20.5t-21 12.5q-7 3 -13 5q-17 7 -34.5 10.5 t-35.5 7.5q-24 5 -47 10.5t-45 11.5q-23 7 -43 15.5t-38 19.5q-37 23 -59 60.5t-22 99.5q0 44 19 85q19 40 48.5 65.5t65.5 40.5t75 20.5t78 5.5q64 0 127.5 -16t124.5 -54q-23 -39 -43 -74.5t-43 -74.5q-51 26 -95.5 40.5t-95.5 14.5q-10 0 -22.5 -0.5t-23 -4.5t-18 -12 t-7.5 -23q0 -9 5 -17q4 -8 17.5 -13.5t36.5 -11.5q22 -6 48.5 -11.5t54.5 -13.5q28 -7 57 -16.5t54.5 -24t46 -34t32.5 -46.5q9 -20 12.5 -43t3.5 -45q0 -66 -26.5 -108t-69 -67t-95 -34.5t-104.5 -9.5z" />
<glyph unicode="t" horiz-adv-x="630" d="M578 488h-170v-488h-188v488h-170l-16 16v155h560v-155z" />
<glyph unicode="u" horiz-adv-x="653" d="M594 244q0 -46 -15 -86.5t-41.5 -73t-63 -56.5t-78.5 -36q-18 -5 -37.5 -8.5t-39.5 -3.5t-39.5 3.5t-37.5 8.5q-42 12 -78 36t-63 56.5t-42 73t-15 86.5v415h195v-405q0 -16 6.5 -29.5t17.5 -23.5t25.5 -16t30.5 -6t30.5 6t25.5 16t17.5 23.5t6.5 29.5v405h195v-415z" />
<glyph unicode="v" horiz-adv-x="698" d="M426 0h-157l-240 659h196l123 -338l123 338h195z" />
<glyph unicode="w" horiz-adv-x="1045" d="M767 0h-148l-98 268l-99 -268h-148l-244 659h201l117 -316l117 316h112l116 -316l117 316h201z" />
<glyph unicode="x" horiz-adv-x="719" d="M469 0l-111 167l-110 -167h-221l221 335l-215 324h221l104 -157l104 157h221l-214 -324l221 -335h-221z" />
<glyph unicode="y" horiz-adv-x="663" d="M426 228v-228h-191v228l-215 431h212l99 -207l98 207h213z" />
<glyph unicode="z" horiz-adv-x="634" d="M57 0v41l242 435h-261v183h548v-41l-241 -435h247v-183h-535z" />
<glyph unicode="{" horiz-adv-x="406" d="M317 -114q-65 0 -105 26t-64 68.5t-37 96t-22.5 109t-21 108t-33.5 91.5q22 39 33.5 91.5t21 108t22.5 109.5t37 96.5t64 68.5t105 26q22 0 50 -5l-26 -146q-7 1 -13.5 2t-13.5 1q-16 0 -28.5 -16t-22 -41.5t-16.5 -56t-11.5 -60t-8 -54t-5.5 -37.5q-3 -22 -7 -44.5 t-12 -42.5q8 -20 13 -53.5t10.5 -72.5t12 -79t17.5 -72t28 -52.5t44 -20.5q8 0 13 1l26 -145q-28 -5 -50 -5z" />
<glyph unicode="|" horiz-adv-x="342" d="M136 -24v822h156v-822h-156z" />
<glyph unicode="}" horiz-adv-x="448" d="M100 -114q-23 0 -51 5l26 145q5 -1 13 -1q26 0 43.5 20.5t28.5 52.5t17.5 72t12 79t10.5 72.5t13 53.5q-8 20 -12 42.5t-7 44.5q-2 13 -5 37.5t-7.5 54t-11.5 60t-16.5 56t-22.5 41.5t-29 16q-7 0 -13.5 -1t-13.5 -2l-26 146q28 5 51 5q64 0 104 -26t64.5 -68.5t37 -96.5 t22 -109.5t21 -107.5t33.5 -92q-22 -40 -33 -92t-21 -107.5t-22.5 -109t-36.5 -96t-64 -68.5t-105 -26z" />
<glyph unicode="~" horiz-adv-x="413" d="M342 821q-20 0 -38 10t-34.5 22.5t-32.5 22.5t-31 10t-22.5 -4t-12.5 -10.5t-9.5 -14.5t-12.5 -17q-5 0 -13.5 6t-16.5 14.5t-13.5 18t-5.5 15.5q0 12 12 26t20 22q14 14 31 25t38 11t39 -10t35 -22.5t33 -22.5t31 -10q22 0 35 17t24 33q12 -11 23.5 -21.5t21.5 -24.5 q-3 -16 -13 -33t-23.5 -31t-30.5 -23t-34 -9z" />
<glyph unicode="&#xa0;" />
<glyph unicode="&#xa1;" horiz-adv-x="342" d="M96 575h168l10 -599h-188zM181 798q19 0 36.5 -7.5t30.5 -20t20.5 -30t7.5 -36.5q0 -20 -7.5 -37t-20.5 -29.5t-30.5 -20t-36.5 -7.5q-20 0 -37 7.5t-30 20t-20.5 29.5t-7.5 37q0 19 7.5 36.5t20.5 30t30 20t37 7.5z" />
<glyph unicode="&#xa2;" horiz-adv-x="663" d="M409 113v-108h-111v110q-54 11 -99.5 39.5t-78.5 69t-51.5 91t-18.5 105.5t18.5 105.5t51.5 91t78.5 68.5t99.5 39v114h111v-114q45 -8 87 -28.5t77 -52.5l-125 -110q-18 14 -39 22v-270q39 17 68 53l128 -105q-37 -48 -87.5 -78.5t-108.5 -41.5zM298 552 q-37 -18 -59 -54t-22 -78t22 -78t59 -55v265z" />
<glyph unicode="&#xa3;" horiz-adv-x="818" d="M560 -25q-32 0 -63 4t-62 8.5t-62.5 8.5t-63.5 4q-55 0 -108 -19t-104 -37v174q21 22 40 48.5t19 59.5q0 16 -5.5 31t-14.5 29.5t-19.5 27.5t-19.5 25v43h-60v182h61q4 65 32 120.5t73 96t103.5 63.5t122.5 23q82 0 154.5 -33t132.5 -88l-122 -133q-38 35 -80.5 54 t-94.5 19q-26 0 -49 -9.5t-41.5 -26t-31.5 -39t-17 -47.5h324v-182h-315q22 -36 35 -77t13 -83q0 -21 -3 -42q31 -1 61.5 -4.5t61 -8t61.5 -8t62 -3.5q29 0 57 10t54 22l78 -163q-50 -23 -101.5 -36.5t-107.5 -13.5z" />
<glyph unicode="&#xa4;" horiz-adv-x="767" d="M465 0v-94h-103v94h-93v-94h-103v94h-115v803h112v124h109v-124h87v124h109v-127q43 -6 79 -25.5t62 -48.5t40.5 -67t14.5 -81q0 -49 -20 -92.5t-56 -75.5q24 -13 43.5 -33.5t34 -45.5t22.5 -53t8 -55q0 -46 -17.5 -86.5t-47.5 -71t-70 -48t-86 -17.5h-10zM460 561 q0 36 -25.5 61.5t-61.5 25.5h-118v-173h118q18 0 34 7t27.5 18.5t18.5 27t7 33.5zM468 250q0 18 -7 33.5t-18.5 27t-27.5 18.5t-34 7h-126v-173h126q36 0 61.5 25.5t25.5 61.5z" />
<glyph unicode="&#xa5;" horiz-adv-x="790" d="M98 364v98h599v-98h-599zM494 278v-278h-190v278l-264 533h209l150 -317l149 317h209zM106 194v97h575v-97h-575z" />
<glyph unicode="&#xa6;" horiz-adv-x="326" d="M158 503v296h106v-296h-106zM158 -24v295h106v-295h-106z" />
<glyph unicode="&#xa7;" />
<glyph unicode="&#xa8;" horiz-adv-x="310" d="M138 921h83v-82h-83v82zM250 921h83v-82h-83v82z" />
<glyph unicode="&#xa9;" horiz-adv-x="418" d="M213 849q30 0 56.5 -11.5t46.5 -31.5t31.5 -47t11.5 -57t-11.5 -56.5t-31.5 -46.5t-46.5 -31.5t-56.5 -11.5t-57 11.5t-47 31.5t-31.5 46.5t-11.5 56.5t11.5 57t31.5 47t47 31.5t57 11.5zM213 795q-19 0 -35.5 -7.5t-28.5 -20.5t-18.5 -29.5t-6.5 -35.5q0 -18 6.5 -35 t18.5 -29.5t28.5 -20t35.5 -7.5q38 0 63 27.5t25 64.5q0 38 -25 65.5t-63 27.5zM232 721q-8 5 -17 5q-10 0 -15.5 -7t-5.5 -16q0 -8 6 -15.5t15 -7.5q7 0 12 3.5t10 8.5l26 -21q-10 -11 -22 -17.5t-26 -6.5q-23 0 -38.5 17t-15.5 39q0 23 15 39.5t38 16.5q12 0 23 -4.5 t20 -11.5z" />
<glyph unicode="&#xaa;" />
<glyph unicode="&#xab;" horiz-adv-x="599" d="M231 543l-121 1l-9 280l141 -1zM491 543l-121 1l-9 280l141 -1z" />
<glyph unicode="&#xac;" />
<glyph unicode="&#xad;" />
<glyph unicode="&#xae;" horiz-adv-x="531" d="M266 851q39 0 73 -15t59.5 -40.5t40.5 -59.5t15 -73t-15 -73.5t-40.5 -60t-59.5 -40t-73 -14.5t-73.5 14.5t-60 40t-40 60t-14.5 73.5t14.5 73t40 59.5t60 40.5t73.5 15zM266 781q-24 0 -45 -9.5t-36.5 -26t-24 -37.5t-8.5 -45t8.5 -45.5t24 -38t36.5 -26t45 -9.5 t44.5 9.5t36 26t24 38t8.5 45.5t-8.5 45t-24 37.5t-36 26t-44.5 9.5zM294 597l-22 41h-22v-41h-36v131h65q10 0 19.5 -6t14.5 -14q7 -10 7 -24q0 -21 -17 -33l31 -54h-40zM269 699h-21v-28h21q6 0 10.5 4t4.5 10t-4.5 10t-10.5 4z" />
<glyph unicode="&#xaf;" horiz-adv-x="528" d="M-19 839v82h584v-82h-584z" />
<glyph unicode="&#xb0;" horiz-adv-x="452" d="M247 678q-27 0 -50.5 10t-41 27.5t-27.5 40.5t-10 50t10 50t27.5 40t41 27t50.5 10q26 0 49.5 -10t41 -27t28 -40t10.5 -50t-10.5 -50t-28 -40.5t-41 -27.5t-49.5 -10zM247 840q-14 0 -24.5 -10t-10.5 -24q0 -15 10.5 -25t24.5 -10t24.5 10t10.5 25q0 14 -10.5 24 t-24.5 10z" />
<glyph unicode="&#xb1;" horiz-adv-x="563" d="M357 328v-134h-136v134h-135v134h135v134h136v-134h135v-134h-135zM119 -25v131h335v-131h-335z" />
<glyph unicode="&#xb2;" />
<glyph unicode="&#xb3;" />
<glyph unicode="&#xb4;" horiz-adv-x="528" d="M-19 839v82h584v-82h-584z" />
<glyph unicode="&#xb5;" />
<glyph unicode="&#xb6;" />
<glyph unicode="&#xb7;" />
<glyph unicode="&#xb8;" />
<glyph unicode="&#xb9;" />
<glyph unicode="&#xba;" horiz-adv-x="392" d="M187 678q-27 0 -50.5 10t-41 27.5t-27.5 40.5t-10 50t10 50t27.5 40t41 27t50.5 10q26 0 49.5 -10t41 -27t28 -40t10.5 -50t-10.5 -50t-28 -40.5t-41 -27.5t-49.5 -10zM187 840q-14 0 -24.5 -10t-10.5 -24q0 -15 10.5 -25t24.5 -10t24.5 10t10.5 25q0 14 -10.5 24 t-24.5 10z" />
<glyph unicode="&#xbb;" horiz-adv-x="599" d="M231 543l-121 1l-9 280l141 -1zM491 543l-121 1l-9 280l141 -1z" />
<glyph unicode="&#xbc;" />
<glyph unicode="&#xbd;" />
<glyph unicode="&#xbe;" />
<glyph unicode="&#xbf;" horiz-adv-x="761" d="M333 481v59h183v-96q0 -22 -7.5 -42.5t-21 -37.5t-31.5 -29.5t-39 -18.5l-16 -4l-16 -4q-35 -11 -57 -39t-22 -65q0 -23 9 -43t24 -35t35 -23.5t43 -8.5q45 0 76.5 30t34.5 74h183q-2 -60 -25.5 -112t-63 -90.5t-92.5 -60.5t-113 -22q-61 0 -114.5 23t-93.5 63t-63 94 t-23 115q0 46 16 90t44.5 80.5t67 63.5t82.5 39zM424 796q19 0 36.5 -7.5t30.5 -20t20.5 -30t7.5 -36.5q0 -20 -7.5 -37t-20.5 -29.5t-30.5 -20t-36.5 -7.5q-20 0 -37 7.5t-30 20t-20.5 29.5t-7.5 37q0 19 7.5 36.5t20.5 30t30 20t37 7.5z" />
<glyph unicode="&#xc0;" horiz-adv-x="836" d="M262 921h292v-82h-292v82zM576 0l-40 107h-239l-40 -107h-219l287 776h183l287 -776h-219zM417 492l-62 -205h123z" />
<glyph unicode="&#xc1;" horiz-adv-x="836" d="M261 921h292v-82h-292v82zM576 0l-40 107h-239l-40 -107h-219l287 776h183l287 -776h-219zM417 492l-62 -205h123z" />
<glyph unicode="&#xc2;" horiz-adv-x="837" d="M478 287h-123l62 205zM795 0l-287 776h-183l-287 -776h219l40 107h239l40 -107h219zM418 957h-1l141 -57l-3 -72l-138 53l-140 -53l-1 72l141 57h1z" />
<glyph unicode="&#xc3;" horiz-adv-x="837" d="M532 962q12 -11 23.5 -21.5t20.5 -23.5q-3 -15 -13 -32t-23.5 -31.5t-30 -23.5t-33.5 -9q-20 0 -38 10.5t-34.5 22.5t-32 22.5t-31.5 10.5q-15 0 -22.5 -4t-12.5 -10.5t-9.5 -15t-12.5 -17.5q-5 0 -13 6.5t-15.5 14.5t-13 17.5t-5.5 15.5q0 12 11.5 26t19.5 22 q14 14 31 25t37 11q21 0 39 -10.5t35 -23t33 -23t32 -10.5q22 0 34.5 17.5t23.5 33.5zM576 0l-40 107h-239l-40 -107h-219l287 776h183l287 -776h-219zM417 492l-62 -205h123z" />
<glyph unicode="&#xc4;" horiz-adv-x="836" d="M315 921h82v-82h-82v82zM427 921h82v-82h-82v82zM576 0l-40 107h-239l-40 -107h-219l287 776h183l287 -776h-219zM417 492l-62 -205h123z" />
<glyph unicode="&#xc5;" horiz-adv-x="837" d="M489 867q0 -35 -22 -56t-56 -21q-33 0 -55 21t-22 56q0 34 22 55t55 21q34 0 56 -21t22 -55zM450 867q0 17 -11 27.5t-28 10.5t-27.5 -10.5t-10.5 -27.5t10.5 -27.5t27.5 -10.5t28 10.5t11 27.5zM576 0l-40 107h-239l-40 -107h-219l287 776h183l287 -776h-219zM417 492 l-62 -205h123z" />
<glyph unicode="&#xc6;" horiz-adv-x="1308" d="M665 306l1 289l-123 -289h122zM1267 597h-399v-120h376v-178h-376v-120h399v-178h-601v108h-177l-47 -109h-228l325 776h728v-179z" />
<glyph unicode="&#xc7;" horiz-adv-x="714" d="M474 -25q0 -21 -5 -46q-7 -36 -30 -65t-54.5 -49.5t-68 -31.5t-70.5 -11q-19 0 -36 4l24 133q6 -2 11 -2h10q14 0 30 2t30.5 8t25 16t12.5 26q1 1 1 5v5q0 4 -0.5 7t-0.5 7q-71 15 -130.5 52.5t-102.5 91.5t-66.5 120.5t-23.5 138.5q0 85 32 160t87.5 131t130 89 t160.5 33q75 0 145 -26.5t127 -77.5l-149 -132q-56 41 -123 41q-45 0 -84 -17.5t-67.5 -47.5t-44.5 -69.5t-16 -83.5t16 -83.5t44.5 -69.5t67.5 -47.5t84 -17.5q48 0 91.5 21.5t74.5 61.5l152 -125q-54 -66 -127 -104.5t-157 -46.5z" />
<glyph unicode="&#xc8;" horiz-adv-x="745" d="M71 921h619v-82h-619v82zM69 0v776h619v-185h-417v-111h393v-185h-393v-111h417v-184h-619z" />
<glyph unicode="&#xc9;" horiz-adv-x="745" d="M71 921h619v-82h-619v82zM69 0v776h619v-185h-417v-111h393v-185h-393v-111h417v-184h-619z" />
<glyph unicode="&#xca;" horiz-adv-x="721" d="M665 0v184h-417v111h393v185h-393v111h417v185h-619v-776h619zM363 951v0l141 -57l-4 -84l-138 54l-140 -54l-1 84l141 57h1z" />
<glyph unicode="&#xcb;" horiz-adv-x="722" d="M144 921h179v-82h-179v82zM387 921h179v-82h-179v82zM46 0v776h619v-185h-417v-111h393v-185h-393v-111h417v-184h-619z" />
<glyph unicode="&#xcc;" horiz-adv-x="365" d="M89 921l193 -20v-62h-193v82zM83 0v776h209v-776h-209z" />
<glyph unicode="&#xcd;" horiz-adv-x="365" d="M292 0v776h-209v-776h209zM285 839h-194v62l194 20v-82z" />
<glyph unicode="&#xce;" horiz-adv-x="385" d="M312 0v776h-209v-776h209zM205 957v0l141 -57l-3 -72l-139 53l-139 -53l-2 72l141 57h1z" />
<glyph unicode="&#xcf;" horiz-adv-x="365" d="M91 921h82v-82h-82v82zM203 921h82v-82h-82v82zM83 0v776h209v-776h-209z" />
<glyph unicode="&#xd0;" horiz-adv-x="922" d="M313 511h138v-82h-138v-243h142q42 0 78.5 16t64 43.5t43.5 64t16 78.5t-16 78.5t-43.5 64t-64 43.5t-78.5 16h-142v-79zM-11 511h130v265h349q80 0 151 -30.5t123.5 -83t83 -123.5t30.5 -151t-30.5 -151t-83 -123.5t-123.5 -83t-151 -30.5h-349v429h-130v82z" />
<glyph unicode="&#xd1;" horiz-adv-x="804" d="M532 962q12 -11 23 -21.5t20 -23.5q-3 -15 -12.5 -32t-23 -31.5t-30 -23.5t-33.5 -9q-20 0 -38 10.5t-34.5 22.5t-32.5 22.5t-32 10.5q-15 0 -22.5 -4t-12.5 -10.5t-9.5 -15t-12.5 -17.5q-5 0 -13 6.5t-15.5 14.5t-13 17.5t-5.5 15.5q0 12 12 26t20 22q14 14 30.5 25 t37.5 11q20 0 38.5 -10.5t35 -23t32.5 -23t32 -10.5q22 0 35 17.5t24 33.5zM528 1l-269 414v-414h-207v775h206l270 -418v418h208v-775h-208z" />
<glyph unicode="&#xd2;" horiz-adv-x="937" d="M167 921h582v-82h-582v82zM464 -24q-86 0 -161 32t-131 87.5t-88.5 130.5t-32.5 160t32.5 160t88.5 130.5t131 88t161 32.5q85 0 160.5 -32.5t131.5 -88t88.5 -130.5t32.5 -160t-32.5 -160t-88.5 -130.5t-131.5 -87.5t-160.5 -32zM464 599q-44 0 -81.5 -17.5t-64.5 -46.5 t-42.5 -67.5t-15.5 -81.5q0 -42 15.5 -81t42.5 -68t64.5 -46.5t81.5 -17.5t81.5 17.5t64.5 46.5t42.5 68t15.5 81q0 43 -15.5 81.5t-42.5 67.5t-64.5 46.5t-81.5 17.5z" />
<glyph unicode="&#xd3;" horiz-adv-x="937" d="M167 921h582v-82h-582v82zM464 -24q-86 0 -161 32t-131 87.5t-88.5 130.5t-32.5 160t32.5 160t88.5 130.5t131 88t161 32.5q85 0 160.5 -32.5t131.5 -88t88.5 -130.5t32.5 -160t-32.5 -160t-88.5 -130.5t-131.5 -87.5t-160.5 -32zM464 599q-44 0 -81.5 -17.5t-64.5 -46.5 t-42.5 -67.5t-15.5 -81.5q0 -42 15.5 -81t42.5 -68t64.5 -46.5t81.5 -17.5t81.5 17.5t64.5 46.5t42.5 68t15.5 81q0 43 -15.5 81.5t-42.5 67.5t-64.5 46.5t-81.5 17.5z" />
<glyph unicode="&#xd4;" horiz-adv-x="937" d="M464 599q44 0 81.5 -17.5t64.5 -46.5t42.5 -67.5t15.5 -81.5q0 -42 -15.5 -81t-42.5 -68t-64.5 -46.5t-81.5 -17.5t-81.5 17.5t-64.5 46.5t-42.5 68t-15.5 81q0 43 15.5 81.5t42.5 67.5t64.5 46.5t81.5 17.5zM464 -24q85 0 160.5 32t131.5 87.5t88.5 130.5t32.5 160 t-32.5 160t-88.5 130.5t-131.5 88t-160.5 32.5q-86 0 -161 -32.5t-131 -88t-88.5 -130.5t-32.5 -160t32.5 -160t88.5 -130.5t131 -87.5t161 -32zM465 957l141 -57l-3 -72l-138 53l-140 -53l-1 72l141 57v0z" />
<glyph unicode="&#xd5;" horiz-adv-x="937" d="M578 962q12 -11 23 -21.5t20 -23.5q-3 -15 -12.5 -32t-23 -31.5t-30 -23.5t-33.5 -9q-20 0 -38 10.5t-34.5 22.5t-32.5 22.5t-32 10.5q-15 0 -22.5 -4t-12.5 -10.5t-9.5 -15t-12.5 -17.5q-5 0 -13 6.5t-15.5 14.5t-13 17.5t-5.5 15.5q0 12 12 26t20 22q14 14 30.5 25 t37.5 11q20 0 38.5 -10.5t35 -23t32.5 -23t32 -10.5q22 0 35 17.5t24 33.5zM464 -24q-86 0 -161 32t-131 87.5t-88.5 130.5t-32.5 160t32.5 160t88.5 130.5t131 88t161 32.5q85 0 160.5 -32.5t131.5 -88t88.5 -130.5t32.5 -160t-32.5 -160t-88.5 -130.5t-131.5 -87.5 t-160.5 -32zM464 599q-44 0 -81.5 -17.5t-64.5 -46.5t-42.5 -67.5t-15.5 -81.5q0 -42 15.5 -81t42.5 -68t64.5 -46.5t81.5 -17.5t81.5 17.5t64.5 46.5t42.5 68t15.5 81q0 43 -15.5 81.5t-42.5 67.5t-64.5 46.5t-81.5 17.5z" />
<glyph unicode="&#xd6;" horiz-adv-x="937" d="M251 921h180v-82h-180v82zM495 921h179v-82h-179v82zM464 -24q-86 0 -161 32t-131 87.5t-88.5 130.5t-32.5 160t32.5 160t88.5 130.5t131 88t161 32.5q85 0 160.5 -32.5t131.5 -88t88.5 -130.5t32.5 -160t-32.5 -160t-88.5 -130.5t-131.5 -87.5t-160.5 -32zM464 599 q-44 0 -81.5 -17.5t-64.5 -46.5t-42.5 -67.5t-15.5 -81.5q0 -42 15.5 -81t42.5 -68t64.5 -46.5t81.5 -17.5t81.5 17.5t64.5 46.5t42.5 68t15.5 81q0 43 -15.5 81.5t-42.5 67.5t-64.5 46.5t-81.5 17.5z" />
<glyph unicode="&#xd7;" />
<glyph unicode="&#xd8;" horiz-adv-x="937" d="M370 186q20 -11 43 -15.5t46 -4.5q45 0 83.5 18t66 48t43.5 70t16 84q0 65 -33 119zM249 386q0 -69 39 -128l270 323q-46 26 -99 26q-45 0 -83.5 -18t-66.5 -48.5t-44 -70.5t-16 -84zM37 -24l121 129q-54 58 -82 130.5t-28 150.5q0 85 32 160t88 131.5t130.5 89 t160.5 32.5q62 0 121 -18.5t110 -53.5l67 72h140l-129 -141q49 -57 75 -127t26 -145q0 -85 -32 -160t-87.5 -130.5t-130.5 -88t-160 -32.5q-60 0 -116 16t-105 48l-59 -63h-142z" />
<glyph unicode="&#xd9;" horiz-adv-x="793" d="M81 921h644v-82h-644v82zM727 284q0 -53 -17.5 -100t-49 -85t-74.5 -65.5t-93 -42.5q-22 -7 -45 -11t-46 -4t-45.5 4t-44.5 11q-50 15 -93 42.5t-74.5 65.5t-49 85t-17.5 100v492h216v-479q0 -22 9 -40.5t24 -32t34.5 -21t40.5 -7.5q22 0 41.5 7.5t34.5 21t24 32t9 40.5 v479h216v-492z" />
<glyph unicode="&#xda;" horiz-adv-x="793" d="M81 921h644v-82h-644v82zM727 284q0 -53 -17.5 -100t-49 -85t-74.5 -65.5t-93 -42.5q-22 -7 -45 -11t-46 -4t-45.5 4t-44.5 11q-50 15 -93 42.5t-74.5 65.5t-49 85t-17.5 100v492h216v-479q0 -22 9 -40.5t24 -32t34.5 -21t40.5 -7.5q22 0 41.5 7.5t34.5 21t24 32t9 40.5 v479h216v-492z" />
<glyph unicode="&#xdb;" horiz-adv-x="767" d="M700 776h-216v-479q0 -22 -9 -40.5t-24 -32t-34.5 -21t-41.5 -7.5q-21 0 -40.5 7.5t-34.5 21t-24 32t-9 40.5v479h-216v-492q0 -53 17.5 -100t49 -85t74.5 -65.5t93 -42.5q22 -7 44.5 -11t45.5 -4t46 4t45 11q50 15 93 42.5t74.5 65.5t49 85t17.5 100v492zM376 974h-1 l161 -65l-3 -83l-158 61l-159 -61l-2 83l161 65h1z" />
<glyph unicode="&#xdc;" horiz-adv-x="767" d="M163 921h179v-82h-179v82zM406 921h179v-82h-179v82zM700 284q0 -53 -17.5 -100t-49 -85t-74.5 -65.5t-93 -42.5q-22 -7 -45 -11t-46 -4t-45.5 4t-44.5 11q-50 15 -93 42.5t-74.5 65.5t-49 85t-17.5 100v492h216v-479q0 -22 9 -40.5t24 -32t34.5 -21t40.5 -7.5 q22 0 41.5 7.5t34.5 21t24 32t9 40.5v479h216v-492z" />
<glyph unicode="&#xdd;" horiz-adv-x="800" d="M59 921h702v-82h-702v82zM519 267v-267h-221v267l-271 508h244l138 -270l137 270h244z" />
<glyph unicode="&#xde;" horiz-adv-x="569" d="M17 -22v680h169v-132h68q48 0 90 -16t73.5 -43.5t49.5 -65t18 -80.5t-18 -80.5t-49.5 -65t-73.5 -43.5t-90 -16h-68v-138h-169zM241 405h-52v-168h52q41 0 68.5 25t27.5 59q0 35 -27.5 59.5t-68.5 24.5z" />
<glyph unicode="&#xdf;" horiz-adv-x="626" d="M253 279v-17v-28t-1 -33q-1 -34 -2 -64t-2 -37q-6 -47 -22 -90.5t-44 -89.5q-49 26 -81 43t-51 27q-22 11 -34 18q16 13 26 26t16.5 24t9 19t3.5 11q5 20 7 39.5t2 39.5q1 21 3 41.5t2 40.5q-1 45 -1.5 89.5t-1.5 89.5v51t1 51v25.5t2 25.5t5 25.5t11 24.5q9 14 35.5 23 t59 14.5t65.5 7.5t54 2q33 0 66.5 -3t64.5 -13t57.5 -29.5t46.5 -52.5q29 -48 26.5 -99.5t-25.5 -99.5q36 -34 51.5 -80t15.5 -93q0 -40 -11.5 -78.5t-34 -70.5t-56 -54t-76.5 -29q-5 -1 -30 -1.5t-53 -0.5q-7 0 -20 0.5t-27 0.5t-26.5 0.5t-17.5 0.5q-5 1 -9.5 1t-7.5 1 q-5 2 -9.5 5.5t-2.5 10.5q12 38 18.5 62.5t10.5 39.5q2 6 2.5 10.5t1.5 8.5l-2 -1l8 23q17 -6 43.5 -7.5t52.5 1.5t46.5 10t26.5 19q14 25 12.5 56t-24.5 48q-10 7 -33 10.5t-50 4.5t-54 1t-43 -1zM371 537h-119v-110h119q10 0 19 5t16 13.5t11 18.5t4 20q0 20 -15 36.5 t-35 16.5z" />
<glyph unicode="&#xe0;" horiz-adv-x="712" d="M241 702v74h228v-74h-228zM481 0l-33 89h-188l-33 -89h-194l241 659h160l241 -659h-194zM354 380l-42 -128h84z" />
<glyph unicode="&#xe1;" horiz-adv-x="712" d="M241 702v74h228v-74h-228zM481 0l-33 89h-188l-33 -89h-194l241 659h160l241 -659h-194zM354 380l-42 -128h84z" />
<glyph unicode="&#xe2;" horiz-adv-x="712" d="M396 252h-84l42 128zM675 0l-241 659h-160l-241 -659h194l33 89h188l33 -89h194zM360 799v0l141 -57l-4 -72l-138 54l-140 -54l-1 72l141 57h1z" />
<glyph unicode="&#xe3;" horiz-adv-x="712" d="M453 817q10 -8 19 -17t17 -20q-3 -14 -11 -28.5t-19.5 -26.5t-25.5 -19.5t-28 -7.5q-17 0 -32.5 8.5t-29.5 19t-27.5 19.5t-26.5 9t-19.5 -3.5t-11 -9t-8 -13t-9.5 -14.5q-5 0 -11.5 5.5t-13 12.5t-11 15t-4.5 13q0 10 9.5 21.5t16.5 18.5q11 12 26 21.5t32 9.5t32.5 -9 t30 -19.5t28 -19t27.5 -8.5q18 0 29 14.5t21 27.5zM481 0l-33 89h-188l-33 -89h-194l241 659h160l241 -659h-194zM354 380l-42 -128h84z" />
<glyph unicode="&#xe4;" horiz-adv-x="712" d="M257 776h82v-74h-82v74zM369 776h82v-74h-82v74zM481 0l-33 89h-188l-33 -89h-194l241 659h160l241 -659h-194zM354 380l-42 -128h84z" />
<glyph unicode="&#xe5;" horiz-adv-x="712" d="M429 728q0 -32 -20 -51t-52 -19q-31 0 -51 19t-20 51t20 51t51 19q32 0 52 -19t20 -51zM393 728q0 16 -10 25.5t-26 9.5q-15 0 -25 -9.5t-10 -25.5t10 -25.5t25 -9.5q16 0 26 9.5t10 25.5zM481 0l-33 89h-188l-33 -89h-194l241 659h160l241 -659h-194zM354 380l-42 -128 h84z" />
<glyph unicode="&#xe6;" horiz-adv-x="1112" d="M1077 493h-332v-80h313v-166h-313v-80h332v-166h-520v89h-131l-38 -90h-211l278 660h622v-167zM480 272h77v181z" />
<glyph unicode="&#xe7;" horiz-adv-x="607" d="M409 -23q-1 -8 -1.5 -16.5t-2.5 -16.5q-6 -32 -26 -57.5t-47 -43t-58.5 -27t-60.5 -9.5q-8 0 -16.5 0.5t-22.5 3.5l23 127q11 -2 15 -2.5t8 -0.5q10 0 22 1.5t22.5 5t18.5 10.5t10 19q1 1 1 4v4v5q-59 13 -108.5 45.5t-84.5 78.5t-54.5 102t-19.5 117q0 72 27 136 t73.5 112t110 76t135.5 28q63 0 122.5 -23.5t113.5 -71.5l-135 -120q-49 36 -101 36q-35 0 -65.5 -14t-53 -37.5t-35 -55t-12.5 -66.5t12.5 -66.5t35 -55.5t53 -38t65.5 -14q38 0 72.5 18t62.5 54l138 -114q-48 -60 -108 -93.5t-129 -40.5z" />
<glyph unicode="&#xe8;" horiz-adv-x="602" d="M40 703v73h528v-73h-528zM41 0v659h523v-165h-349v-81h330v-166h-330v-81h349v-166h-523z" />
<glyph unicode="&#xe9;" horiz-adv-x="602" d="M40 703v73h528v-73h-528zM41 0v659h523v-165h-349v-81h330v-166h-330v-81h349v-166h-523z" />
<glyph unicode="&#xea;" horiz-adv-x="602" d="M564 0v166h-349v81h330v166h-330v81h349v165h-523v-659h523zM298 821v0l141 -57l-4 -84l-138 54l-140 -54l-1 84l141 57h1z" />
<glyph unicode="&#xeb;" horiz-adv-x="602" d="M93 776h179v-72h-179v72zM336 776h180v-72h-180v72zM41 0v659h523v-165h-349v-81h330v-166h-330v-81h349v-166h-523z" />
<glyph unicode="&#xec;" horiz-adv-x="285" d="M38 786l193 -20v-63h-193v83zM38 0v659h193v-659h-193z" />
<glyph unicode="&#xed;" horiz-adv-x="285" d="M231 0v659h-193v-659h193zM232 703h-193v63l193 20v-83z" />
<glyph unicode="&#xee;" horiz-adv-x="285" d="M231 0v659h-193v-659h193zM133 799v0l141 -57l-3 -72l-139 53l-138 -53l-2 72l140 57h1z" />
<glyph unicode="&#xef;" horiz-adv-x="285" d="M40 776h82v-82h-82v82zM152 776h82v-82h-82v82zM38 0v659h193v-659h-193z" />
<glyph unicode="&#xf0;" horiz-adv-x="783" d="M397 0h-299v354h-107v87h107v219h299q68 0 128.5 -26t105.5 -71t71 -105t26 -128t-26 -128t-71 -105t-105.5 -71t-128.5 -26zM386 487h-108v-46h114v-87h-114v-181h108q33 0 61.5 12.5t49.5 33.5t33.5 49.5t12.5 61.5q0 32 -12.5 60.5t-33.5 50t-49.5 34t-61.5 12.5z" />
<glyph unicode="&#xf1;" horiz-adv-x="683" d="M437 0l-203 319v-319h-186v659h182l203 -321v321h186v-659h-182z" />
<glyph unicode="&#xf2;" horiz-adv-x="796" d="M127 703v73h528v-73h-528zM395 -20q-72 0 -136 27.5t-111.5 74.5t-75 111t-27.5 136t27.5 135.5t75 111t111.5 75t136 27.5t136 -27.5t111.5 -74.5t75 -111t27.5 -136t-27.5 -136t-75 -111t-111.5 -74.5t-136 -27.5zM395 497q-34 0 -63.5 -13.5t-51 -36.5t-34 -53.5 t-12.5 -64.5t12.5 -64.5t34 -54t51 -37t63.5 -13.5t63.5 13.5t51 37t33.5 54t12 64.5t-12 64.5t-33.5 53.5t-51 36.5t-63.5 13.5z" />
<glyph unicode="&#xf3;" horiz-adv-x="796" d="M127 703v73h528v-73h-528zM395 -20q-72 0 -136 27.5t-111.5 74.5t-75 111t-27.5 136t27.5 135.5t75 111t111.5 75t136 27.5t136 -27.5t111.5 -74.5t75 -111t27.5 -136t-27.5 -136t-75 -111t-111.5 -74.5t-136 -27.5zM395 497q-34 0 -63.5 -13.5t-51 -36.5t-34 -53.5 t-12.5 -64.5t12.5 -64.5t34 -54t51 -37t63.5 -13.5t63.5 13.5t51 37t33.5 54t12 64.5t-12 64.5t-33.5 53.5t-51 36.5t-63.5 13.5z" />
<glyph unicode="&#xf4;" horiz-adv-x="796" d="M395 497q34 0 63.5 -13.5t51 -36.5t33.5 -53.5t12 -64.5t-12 -64.5t-33.5 -54t-51 -37t-63.5 -13.5t-63.5 13.5t-51 37t-34 54t-12.5 64.5t12.5 64.5t34 53.5t51 36.5t63.5 13.5zM395 -20q72 0 136 27.5t111.5 74.5t75 111t27.5 136t-27.5 136t-75 111t-111.5 74.5 t-136 27.5t-136 -27.5t-111.5 -75t-75 -111t-27.5 -135.5t27.5 -136t75 -111t111.5 -74.5t136 -27.5zM397 799l141 -57l-3 -72l-138 53l-140 -53l-1 72l141 57v0z" />
<glyph unicode="&#xf5;" horiz-adv-x="796" d="M502 816q10 -8 19 -17t17 -20q-3 -14 -11 -28.5t-19.5 -26.5t-25.5 -19.5t-28 -7.5q-17 0 -32.5 8.5t-29.5 19t-27.5 19.5t-26.5 9t-19.5 -3.5t-11 -9t-8 -13t-9.5 -14.5q-5 0 -11.5 5.5t-13 12.5t-11 15t-4.5 13q0 10 9.5 21.5t16.5 18.5q11 12 26 21.5t32 9.5t32.5 -9 t30 -19.5t28 -19t27.5 -8.5q18 0 29 14.5t21 27.5zM395 -20q-72 0 -136 27.5t-111.5 74.5t-75 111t-27.5 136t27.5 135.5t75 111t111.5 75t136 27.5t136 -27.5t111.5 -74.5t75 -111t27.5 -136t-27.5 -136t-75 -111t-111.5 -74.5t-136 -27.5zM395 497q-34 0 -63.5 -13.5 t-51 -36.5t-34 -53.5t-12.5 -64.5t12.5 -64.5t34 -54t51 -37t63.5 -13.5t63.5 13.5t51 37t33.5 54t12 64.5t-12 64.5t-33.5 53.5t-51 36.5t-63.5 13.5z" />
<glyph unicode="&#xf6;" horiz-adv-x="796" d="M183 776h179v-73h-179v73zM426 776h180v-73h-180v73zM395 -20q-72 0 -136 27.5t-111.5 74.5t-75 111t-27.5 136t27.5 135.5t75 111t111.5 75t136 27.5t136 -27.5t111.5 -74.5t75 -111t27.5 -136t-27.5 -136t-75 -111t-111.5 -74.5t-136 -27.5zM395 497q-34 0 -63.5 -13.5 t-51 -36.5t-34 -53.5t-12.5 -64.5t12.5 -64.5t34 -54t51 -37t63.5 -13.5t63.5 13.5t51 37t33.5 54t12 64.5t-12 64.5t-33.5 53.5t-51 36.5t-63.5 13.5z" />
<glyph unicode="&#xf7;" horiz-adv-x="817" d="M385 465q-21 0 -39.5 7.5t-32.5 21t-22 31t-8 38.5t8 38.5t22 31t32.5 21t39.5 7.5t39.5 -7.5t33 -21t22.5 -31t8 -38.5t-8 -38.5t-22.5 -31t-33 -21t-39.5 -7.5zM104 258v145h565v-145h-565zM385 15q-21 0 -39.5 7.5t-32.5 21t-22 31t-8 38.5t8 39t22 31.5t32.5 21 t39.5 7.5t39.5 -7.5t33 -21t22.5 -31.5t8 -39t-8 -38.5t-22.5 -31t-33 -21t-39.5 -7.5z" />
<glyph unicode="&#xf8;" horiz-adv-x="796" d="M659 552q39 -48 59.5 -105t20.5 -119q0 -72 -27.5 -135.5t-74.5 -111t-110.5 -75t-136.5 -27.5q-48 0 -94 12.5t-87 37.5l-46 -50h-144l109 117q-42 48 -64.5 108t-22.5 124q0 72 27 136t74.5 112t111 75.5t136.5 27.5q104 0 190 -57l53 57h142zM535 409l-203 -242 q26 -11 58 -11q35 0 65 14t52 37.5t34.5 54.5t12.5 66q0 41 -19 81zM390 501q-35 0 -65 -14t-52 -38t-34.5 -55.5t-12.5 -65.5q0 -49 24 -89l207 247q-32 15 -67 15z" />
<glyph unicode="&#xf9;" horiz-adv-x="653" d="M47 703v73h546v-73h-546zM594 244q0 -46 -15 -86.5t-41.5 -73t-63 -56.5t-78.5 -36q-18 -5 -37.5 -8.5t-39.5 -3.5t-39.5 3.5t-37.5 8.5q-42 12 -78 36t-63 56.5t-42 73t-15 86.5v415h195v-405q0 -16 6.5 -29.5t17.5 -23.5t25.5 -16t30.5 -6t30.5 6t25.5 16t17.5 23.5 t6.5 29.5v405h195v-415z" />
<glyph unicode="&#xfa;" horiz-adv-x="653" d="M47 703v73h545v-73h-545zM594 244q0 -46 -15 -86.5t-41.5 -73t-63 -56.5t-78.5 -36q-18 -5 -37.5 -8.5t-39.5 -3.5t-39.5 3.5t-37.5 8.5q-42 12 -78 36t-63 56.5t-42 73t-15 86.5v415h195v-405q0 -16 6.5 -29.5t17.5 -23.5t25.5 -16t30.5 -6t30.5 6t25.5 16t17.5 23.5 t6.5 29.5v405h195v-415z" />
<glyph unicode="&#xfb;" horiz-adv-x="653" d="M594 659h-195v-405q0 -16 -6.5 -29.5t-17.5 -23.5t-25.5 -16t-30.5 -6t-30.5 6t-25.5 16t-17.5 23.5t-6.5 29.5v405h-195v-415q0 -46 15 -86.5t42 -73t63 -56.5t78 -36q18 -5 37.5 -8.5t39.5 -3.5t39.5 3.5t37.5 8.5q42 12 78.5 36t63 56.5t41.5 73t15 86.5v415zM322 799 l141 -57l-4 -72l-138 54l-140 -54l-1 72l141 57h1z" />
<glyph unicode="&#xfc;" horiz-adv-x="653" d="M111 776h179v-73h-179v73zM354 776h180v-73h-180v73zM594 244q0 -46 -15 -86.5t-41.5 -73t-63 -56.5t-78.5 -36q-18 -5 -37.5 -8.5t-39.5 -3.5t-39.5 3.5t-37.5 8.5q-42 12 -78 36t-63 56.5t-42 73t-15 86.5v415h195v-405q0 -16 6.5 -29.5t17.5 -23.5t25.5 -16t30.5 -6 t30.5 6t25.5 16t17.5 23.5t6.5 29.5v405h195v-415z" />
<glyph unicode="&#xfd;" horiz-adv-x="663" d="M27 703v73h608v-73h-608zM426 228v-228h-191v228l-215 431h212l99 -207l98 207h213z" />
<glyph unicode="&#xfe;" horiz-adv-x="569" d="M279 143h-75v-167h-174v822h174v-159h75q54 0 102 -19.5t84 -53t56.5 -79t20.5 -96.5t-20.5 -96.5t-56.5 -79t-84 -53t-102 -19.5zM264 492h-57v-202h57q22 0 42 8t34.5 21.5t23 32t8.5 39.5t-8.5 39t-23 32t-34.5 22t-42 8z" />
<glyph unicode="&#xff;" horiz-adv-x="663" d="M125 776h179v-72h-179v72zM368 776h180v-72h-180v72zM426 228v-228h-191v228l-215 431h212l99 -207l98 207h213z" />
<glyph unicode="&#x152;" horiz-adv-x="1304" d="M669 1v36q-46 -28 -99 -43.5t-113 -15.5q-85 0 -160 32t-131 87.5t-88.5 130t-32.5 159.5t32.5 160t88.5 130.5t131 88t160 32.5q60 0 113 -16t99 -45v38h585v-180h-399v-117h376v-180h-376v-117h399v-180h-585zM457 604q-45 0 -83 -17.5t-65.5 -47.5t-43.5 -69.5 t-16 -82.5q0 -44 16 -83t43.5 -69t65.5 -47.5t83 -17.5t83 17.5t65.5 47.5t43.5 69t16 83q0 43 -16 82.5t-43.5 69.5t-65.5 47.5t-83 17.5z" />
<glyph unicode="&#x153;" horiz-adv-x="1109" d="M558 0v22q-37 -20 -79 -30.5t-87 -10.5q-73 0 -137.5 27t-112.5 74.5t-76 111t-28 135.5t28 136t76 111t112.5 74.5t137.5 27.5q45 0 87 -11t79 -31v24h508v-169h-333v-77h314v-168h-314v-77h333v-169h-508zM392 499q-35 0 -65 -14t-52 -37t-34.5 -54t-12.5 -65t12.5 -65 t34.5 -54t52 -37t65 -14t65 14t51.5 37t34 54t12.5 65t-12.5 65t-34 54t-51.5 37t-65 14z" />
<glyph unicode="&#x160;" horiz-adv-x="772" d="M359 796l-169 103l29 75l140 -89l138 89l28 -86l-166 -92v0zM354 -24q-78 0 -154.5 18.5t-146.5 51.5q-2 0 -10 4q-8 5 -8 7q0 1 4 8l10 17.5t14 24t16 27.5q17 28 32 53t21 36q13 -5 25 -12q54 -27 108.5 -41.5t115.5 -14.5q17 0 36.5 1.5t35.5 7.5t26.5 18.5t10.5 35.5 q0 11 -6 19.5t-15 15t-19 11.5t-19 8q-21 8 -43 12t-44 9q-29 7 -57 13t-54 14q-27 8 -51.5 17.5t-45.5 22.5q-43 26 -68.5 69.5t-25.5 115.5q0 25 5.5 50.5t16.5 48.5q22 46 57 76t77.5 47t89.5 24t94 7q77 0 152 -18.5t143 -60.5q-25 -42 -48.5 -82.5t-47.5 -82.5 q-58 28 -112.5 46t-117.5 18q-15 0 -31.5 -1.5t-30.5 -7.5t-23 -17.5t-9 -30.5q0 -14 6 -24q7 -11 25.5 -19.5t45.5 -15.5t59 -13.5t67 -15.5q34 -9 68.5 -20.5t65 -28t54.5 -39t38 -53.5q11 -23 15 -49.5t4 -52.5q0 -76 -31 -125t-81 -77.5t-113 -40t-126 -11.5z" />
<glyph unicode="&#x161;" horiz-adv-x="656" d="M316 677l-166 92l27 95l140 -89l138 89l28 -95l-166 -92h-1zM301 -21q-65 0 -128.5 16t-121.5 44q-1 0 -3 1t-5 2q-5 3 -7.5 6.5t-2.5 5.5q0 1 11 21.5t26 46.5q14 23 26 44.5t20 34.5l16.5 -7.5t10.5 -5.5q44 -22 88 -34t92 -12h13.5t13.5 1q15 0 27 4q12 5 20.5 14 t8.5 27q0 13 -10 20.5t-21 12.5q-7 3 -13 5q-17 7 -34.5 10.5t-35.5 7.5q-24 5 -47 10.5t-45 11.5q-23 7 -43 15.5t-38 19.5q-37 23 -59 60.5t-22 99.5q0 44 19 85q19 40 48.5 65.5t65.5 40.5t75 20.5t78 5.5q64 0 127.5 -16t124.5 -54q-23 -39 -43 -74.5t-43 -74.5 q-51 26 -95.5 40.5t-95.5 14.5q-10 0 -22.5 -0.5t-23 -4.5t-18 -12t-7.5 -23q0 -9 5 -17q4 -8 17.5 -13.5t36.5 -11.5q22 -6 48.5 -11.5t54.5 -13.5q28 -7 57 -16.5t54.5 -24t46 -34t32.5 -46.5q9 -20 12.5 -43t3.5 -45q0 -66 -26.5 -108t-69 -67t-95 -34.5t-104.5 -9.5z " />
<glyph unicode="&#x178;" horiz-adv-x="780" d="M184 921h179v-82h-179v82zM427 921h179v-82h-179v82zM499 267v-267h-221v267l-271 508h244l138 -270l137 270h244z" />
<glyph unicode="&#x17d;" horiz-adv-x="746" d="M382 777l-167 92l28 95l139 -89l138 89l29 -95l-167 -92v0v0zM68 0v35l302 542h-325v199h645v-35l-302 -542h309v-199h-629z" />
<glyph unicode="&#x17e;" horiz-adv-x="634" d="M316 664l-166 92l27 95l140 -89l138 89l28 -95l-166 -92v0h-1zM57 0v41l242 435h-261v183h548v-41l-241 -435h247v-183h-535z" />
<glyph unicode="&#x192;" />
<glyph unicode="&#x2c6;" />
<glyph unicode="&#x2dc;" />
<glyph unicode="&#x2013;" />
<glyph unicode="&#x2014;" />
<glyph unicode="&#x2018;" horiz-adv-x="324" d="M231 543l-121 1l-9 280l141 -1z" />
<glyph unicode="&#x2019;" horiz-adv-x="324" d="M231 543l-121 1l-9 280l141 -1z" />
<glyph unicode="&#x201a;" horiz-adv-x="368" d="M234 -154l-104 25l20 248l138 -33z" />
<glyph unicode="&#x201c;" horiz-adv-x="599" d="M231 543l-121 1l-9 280l141 -1zM491 543l-121 1l-9 280l141 -1z" />
<glyph unicode="&#x201d;" horiz-adv-x="599" d="M231 543l-121 1l-9 280l141 -1zM491 543l-121 1l-9 280l141 -1z" />
<glyph unicode="&#x201e;" horiz-adv-x="514" d="M421 525h-106l-9 294l126 -1zM221 525h-106l-9 294l126 -1z" />
<glyph unicode="&#x2020;" />
<glyph unicode="&#x2021;" />
<glyph unicode="&#x2022;" />
<glyph unicode="&#x2026;" horiz-adv-x="787" d="M125 -24q-19 0 -36.5 7t-30.5 19.5t-20.5 29t-7.5 36.5q0 19 7.5 36t20.5 30t30.5 20t36.5 7t36.5 -7t30.5 -20t20.5 -30t7.5 -36q0 -39 -28 -65.5t-67 -26.5zM385 -24q-19 0 -36.5 7t-30.5 19.5t-20.5 29t-7.5 36.5q0 19 7.5 36t20.5 30t30.5 20t36.5 7t36.5 -7 t30.5 -20t20.5 -30t7.5 -36q0 -39 -28 -65.5t-67 -26.5zM645 -24q-19 0 -36.5 7t-30.5 19.5t-20.5 29t-7.5 36.5q0 19 7.5 36t20.5 30t30.5 20t36.5 7t36.5 -7t30.5 -20t20.5 -30t7.5 -36q0 -39 -28 -65.5t-67 -26.5z" />
<glyph unicode="&#x2030;" horiz-adv-x="1415" d="M1187 -33q-44 0 -80.5 18t-62.5 48t-41 69t-15 80q0 43 15 82.5t42 69.5t64.5 48t82.5 18q43 0 80 -18t64 -48t42.5 -69t15.5 -81q0 -44 -15.5 -83t-43.5 -69t-65.5 -47.5t-82.5 -17.5zM747 -23q-44 0 -80.5 18t-62.5 48t-41 68.5t-15 80.5q0 43 15 82.5t42 69.5t64.5 48 t82.5 18q43 0 80 -18t64 -48t42.5 -69t15.5 -81q0 -44 -15.5 -83t-43.5 -69t-65.5 -47.5t-82.5 -17.5zM286 -24h-198l603 801h194zM235 363q-44 0 -80.5 18.5t-62.5 48.5t-41 69t-15 81q0 43 15 82.5t42.5 69.5t65 48t82.5 18q43 0 80 -18t64 -48t42 -69t15 -81 q0 -44 -15.5 -83.5t-43.5 -69.5t-65.5 -48t-82.5 -18zM1191 254q-27 0 -43.5 -21t-16.5 -47t16.5 -47.5t43.5 -21.5q28 0 44.5 21.5t16.5 47.5t-16.5 47t-44.5 21zM751 264q-27 0 -43.5 -21t-16.5 -47t16.5 -47.5t43.5 -21.5q28 0 44.5 21.5t16.5 47.5t-16.5 47t-44.5 21z M240 652q-28 0 -44.5 -21.5t-16.5 -47.5t16.5 -47t44.5 -21q27 0 44 21t17 47t-17 47.5t-44 21.5z" />
<glyph unicode="&#x2039;" horiz-adv-x="768" d="M641 37l-641 357l641 357l95 -144l-383 -213l383 -213z" />
<glyph unicode="&#x203a;" horiz-adv-x="729" d="M87 37l-95 144l383 213l-383 213l95 144l642 -357z" />
<glyph unicode="&#x20ac;" horiz-adv-x="795" d="M97 386q0 87 34 164t92.5 135t136 92t163.5 34q70 0 134 -24.5t116 -70.5l-138 -141q-52 37 -115 37q-46 0 -87 -18t-71.5 -49t-48.5 -71.5t-18 -86.5q0 -47 17.5 -87.5t47.5 -70.5t71 -47t88 -17q48 0 91 19t72 57l142 -134q-56 -69 -134 -105t-166 -36q-87 0 -164.5 33 t-136 90t-92.5 133.5t-34 163.5zM-1 428v105h625v-105h-625zM-1 259v105h625v-105h-625z" />
<glyph unicode="&#x2122;" horiz-adv-x="429" d="M171 801h-55v-152h-55v152h-55l-4 4v46h173v-46zM336 649v104l-43 -71q-2 -3 -6 -3q-5 0 -6 3l-43 71v-104h-53v202h50q2 0 4 -2l48 -80l48 80q2 2 4 2h50v-202h-53z" />
<glyph unicode="&#x25fc;" horiz-adv-x="660" d="M0 660h660v-660h-660v660z" />
<glyph />
<glyph />
<glyph horiz-adv-x="1000" />
<glyph horiz-adv-x="1000" />
<glyph horiz-adv-x="1000" />
<glyph />
<glyph />
<glyph />
<glyph />
<glyph />
<glyph />
<glyph />
<glyph />
<glyph />
<glyph />
<glyph horiz-adv-x="1000" />
<glyph />
<glyph />
<glyph />
<glyph />
<glyph />
<glyph />
<glyph />
<glyph />
<glyph />
<glyph />
<glyph />
<glyph />
<glyph />
<glyph />
<glyph horiz-adv-x="1000" />
<glyph />
</font>
</defs>
</svg>
